# xmcd CD database file
#
# Track frame offsets:
#	150
#	22895
#	40997
#	72979
#	94736
#	116755
#	133788
#	150802
#	166070
#
# Disc length: 2481 seconds
#
# Revision: 0
# Processed by: cddbd v1.5PL3 Copyright (c) Steve Scherf et al.
# Submitted via: CDex 1.51
#
DISCID=6809af09
DTITLE=Albert King - Albert
DYEAR=1976
DGENRE=Blues
TTITLE0=Guitar Man
TTITLE1=I'm Ready
TTITLE2=Aint Nothing You Can Do
TTITLE3=I Don't Care What My Baby Do
TTITLE4=Change Of Pace
TTITLE5=My Babe
TTITLE6=Running Out Of Steam
TTITLE7=Rub My Back
TTITLE8=(Ain't It) A Real Good Sign
EXTD=YEAR: 1976
EXTT0=
EXTT1=
EXTT2=
EXTT3=
EXTT4=
EXTT5=
EXTT6=
EXTT7=
EXTT8=
PLAYORDER=
